<svg version="1.1" id="Layer_1" xmlns="http://www.w3.org/2000/svg" xmlns:xlink="http://www.w3.org/1999/xlink" x="0px" y="0px"
	 width="100%" viewBox="120 120 784 784" enable-background="new 0 0 1024 1024" xml:space="preserve">
<path fill="#000000" opacity="1.000000" stroke="none" 
	d="
M284.970581,599.713379 
	C284.270844,607.462891 283.667694,614.759460 282.988922,622.049011 
	C282.642822,625.766052 284.442322,628.852478 285.856934,632.009155 
	C293.008392,647.966980 300.269897,663.875488 307.459869,679.816162 
	C308.572998,682.284119 310.038239,684.444702 311.996765,686.324158 
	C321.615143,695.554626 331.225830,704.793518 340.773651,714.096619 
	C342.547241,715.824768 344.475952,716.656555 346.940735,716.894165 
	C367.487274,718.874512 388.029419,720.904846 408.557892,723.062744 
	C411.395752,723.361023 413.308685,722.448120 415.123657,720.465942 
	C424.125244,710.634949 433.166443,700.839844 442.238617,691.073853 
	C444.059753,689.113464 444.750244,686.912415 444.738770,684.266296 
	C444.688904,672.767212 444.685211,661.267029 444.809906,649.768799 
	C444.841125,646.887207 443.956238,644.650635 441.944641,642.634460 
	C436.412567,637.089844 430.934845,631.489685 425.511322,625.838867 
	C423.641632,623.890869 421.542023,623.045288 418.835541,623.186829 
	C409.855255,623.656555 400.869537,624.029419 391.883820,624.386780 
	C388.542847,624.519653 386.276703,626.019348 384.876587,629.084473 
	C381.693176,636.053467 378.463654,643.002930 375.128662,649.900208 
	C374.194824,651.831482 374.459106,653.356750 375.661621,654.976440 
	C380.031677,660.862854 384.388580,666.759399 388.695374,672.692078 
	C390.021484,674.518860 391.480133,674.658447 393.449341,673.764832 
	C397.999481,671.700012 402.621826,669.794678 407.205902,667.803955 
	C407.807831,667.542542 408.473511,667.271790 408.911560,666.815308 
	C411.259552,664.368347 408.425018,651.366516 405.410583,649.854919 
	C400.144165,647.214050 395.092590,646.610840 389.892975,650.124207 
	C388.389557,651.140076 386.321320,652.652283 384.461182,650.698364 
	C382.902771,649.061340 384.030151,647.129028 384.801666,645.563171 
	C387.302704,640.487488 390.003082,635.510193 392.618042,630.490479 
	C393.747986,628.321472 395.494476,627.401428 397.941956,627.649536 
	C407.234192,628.591614 416.310486,630.730286 425.432220,632.605652 
	C427.637604,633.059082 428.566406,634.962036 429.286163,636.867310 
	C432.699432,645.903015 436.072784,654.953735 439.480316,663.991577 
	C440.273773,666.096008 440.276642,668.190063 439.806396,670.371765 
	C436.987915,683.447388 432.134430,694.607117 417.459900,698.616089 
	C411.603394,700.216003 406.263794,703.704407 400.683228,706.321106 
	C399.477234,706.886597 398.209290,707.936096 397.033661,707.853638 
	C386.635010,707.124146 375.587189,706.772766 367.762604,699.212097 
	C359.178162,690.917297 352.077271,681.088135 344.315430,671.939941 
	C342.880493,670.248718 341.916992,668.393616 341.580719,666.160767 
	C340.514862,659.084045 339.378113,652.017883 338.244476,644.951538 
	C337.879944,642.679199 338.698090,640.683105 339.593384,638.702332 
	C346.248688,623.978638 352.964691,609.282104 359.540344,594.523071 
	C361.195007,590.809143 363.786774,588.702087 367.778625,588.167236 
	C388.552948,585.383240 409.324432,582.578186 430.097656,579.786011 
	C433.247040,579.362610 436.018982,580.222229 438.460083,582.254028 
	C454.082001,595.256653 469.714752,608.246277 485.334198,621.251892 
	C487.604706,623.142456 488.983551,625.487610 489.150787,628.544006 
	C490.151215,646.828491 491.194489,665.110657 492.235413,683.392944 
	C492.566620,689.210388 492.832916,695.034241 493.321259,700.838989 
	C493.650116,704.747681 492.462891,707.955566 490.001953,710.949585 
	C473.927277,730.507019 457.905853,750.108215 441.895996,769.718811 
	C440.418518,771.528564 438.627350,772.355103 436.319672,772.539246 
	C421.385162,773.730957 406.456665,774.998352 391.525299,776.229797 
	C384.226257,776.831787 376.883636,777.098938 369.634674,778.069763 
	C358.022583,779.624756 347.189758,776.146973 336.186981,773.609375 
	C328.241028,771.776855 320.333679,769.768799 312.361938,768.059082 
	C307.982605,767.119873 304.337677,765.260437 301.126343,762.067810 
	C288.008545,749.026428 274.717957,736.158936 261.556152,723.161499 
	C253.785614,715.488037 248.515442,705.903076 242.117279,697.186218 
	C234.429092,686.711853 227.638092,675.538879 219.477097,665.463440 
	C212.010696,656.245483 209.793060,645.889771 208.573441,634.614624 
	C206.301468,613.610474 203.313431,592.683777 200.639801,571.722778 
	C200.365967,569.575989 198.920853,568.158691 197.619766,566.666809 
	C194.334381,562.899780 191.081421,559.097717 187.642029,555.474304 
	C185.492569,553.209778 185.030655,551.245544 186.883942,548.449463 
	C190.102356,543.593567 192.628876,538.261536 196.019592,533.541626 
	C200.376053,527.477478 202.543564,520.862610 202.551926,513.526917 
	C202.567673,499.687378 205.890594,486.482330 210.173676,473.488159 
	C211.568985,469.255066 211.606232,465.618073 209.283081,461.631439 
	C206.694519,457.189392 205.023880,452.219238 202.533447,447.711090 
	C200.582062,444.178711 200.969269,441.801361 204.061447,439.100281 
	C210.834198,433.184235 217.283447,426.898438 223.888779,420.789551 
	C225.377167,419.413086 226.878082,417.989136 227.387390,416.008881 
	C229.701736,407.010559 234.384140,399.107056 238.812637,391.095520 
	C240.362106,388.292450 240.738693,385.657135 239.757751,382.534363 
	C238.162598,377.456268 237.177078,372.184692 235.538406,367.122925 
	C234.446899,363.751404 235.443039,361.900452 238.353165,360.217926 
	C246.429184,355.548676 254.382812,350.667877 262.390320,345.879913 
	C264.549347,344.588959 266.687225,343.267090 267.903290,340.946991 
	C273.164978,330.908173 281.165131,323.046173 288.761902,314.888794 
	C290.996399,312.489410 291.957214,310.036896 291.665741,306.811249 
	C291.126312,300.841492 291.060211,294.818512 290.286560,288.884216 
	C289.806183,285.199554 291.324188,283.779694 294.470642,282.801636 
	C305.283905,279.440369 316.040833,275.898102 326.844482,272.505341 
	C330.864532,271.242889 334.474243,269.388153 337.861389,266.824066 
	C346.563873,260.236176 356.411316,255.684891 366.495361,251.692429 
	C369.894409,250.346695 372.052704,248.486755 372.826294,244.774063 
	C373.911530,239.565811 375.717407,234.494812 376.601440,229.261444 
	C377.384338,224.626801 379.615540,223.343109 384.085327,223.714371 
	C395.532501,224.665176 407.025848,225.071304 418.466187,226.085251 
	C421.942352,226.393326 425.029266,225.638168 428.254730,224.876053 
	C438.003906,222.572556 447.950256,221.557022 457.903931,220.807007 
	C461.871155,220.508072 464.425293,218.977386 466.107208,215.442719 
	C468.039001,211.382904 470.314026,207.485931 472.231323,203.419846 
	C473.801117,200.090805 475.754272,199.209579 479.354767,200.690140 
	C486.743896,203.728622 494.457306,205.997345 501.778656,209.178192 
	C520.402832,217.269745 540.804871,218.772446 559.847473,225.239059 
	C561.856873,225.921417 562.995239,224.823151 564.106812,223.515167 
	C566.588135,220.595337 569.077271,217.681625 571.521240,214.730637 
	C575.679810,209.709427 575.692505,209.666092 580.915894,213.939194 
	C591.233887,222.379990 601.486389,230.901154 611.831299,239.308685 
	C618.163147,244.454712 626.023132,246.555328 633.421692,249.435394 
	C636.483459,250.627274 639.961182,248.819656 643.078613,247.692703 
	C645.369019,246.864731 644.829224,244.676636 644.669312,242.926682 
	C643.532654,230.491257 642.507812,218.041092 641.074280,205.638748 
	C639.833496,194.904160 640.130859,193.988983 650.627319,194.846176 
	C661.397888,195.725739 672.101440,197.441345 682.826477,198.850800 
	C685.102783,199.149933 686.648376,200.839813 688.218140,202.303085 
	C706.012756,218.890945 723.988770,235.293335 741.437195,252.238678 
	C747.586731,258.210876 754.493774,262.387390 762.138367,265.796051 
	C772.482178,270.408356 782.719360,275.261841 793.096558,279.796143 
	C797.364197,281.660919 800.774231,284.304443 803.479187,288.065308 
	C823.034607,315.254791 842.555481,342.469879 862.286377,369.531738 
	C865.859375,374.432220 866.100159,379.067688 865.103760,384.914856 
	C861.907166,403.672668 851.894165,418.427277 839.395752,431.962219 
	C837.758423,433.735291 835.842407,434.865021 833.536743,435.567963 
	C787.188721,449.698456 740.849854,463.859070 694.514648,478.031494 
	C691.092163,479.078308 687.741394,479.015900 684.180359,478.517548 
	C663.908264,475.680542 643.606873,473.051025 623.304993,470.431946 
	C621.400452,470.186249 619.384033,469.741455 616.738586,470.937683 
	C622.256287,477.419861 627.585388,483.695740 632.931091,489.957458 
	C644.315430,503.292542 644.325806,503.744690 661.682495,503.481781 
	C688.834045,503.070526 715.978027,503.784058 743.134094,503.367645 
	C765.596619,503.023224 788.139587,501.726624 810.553162,503.830658 
	C819.511292,504.671631 828.256897,507.777008 837.918701,510.043884 
	C834.991577,512.598267 832.428772,511.957733 830.090332,511.960846 
	C782.759827,512.024231 735.429016,512.105408 688.098938,511.970428 
	C683.270569,511.956665 680.904175,513.284973 679.899963,518.210693 
	C678.473145,525.209900 675.968811,531.987061 674.488037,538.978394 
	C673.490295,543.689026 671.545349,545.494019 666.477295,545.436890 
	C642.481689,545.166321 618.481323,545.300049 594.482788,545.349609 
	C591.897095,545.354919 589.114563,544.786377 586.656982,547.021057 
	C587.486572,550.737244 590.583374,549.932251 592.972351,549.936035 
	C616.137573,549.973083 639.302917,549.923096 662.468262,549.877014 
	C671.472229,549.859070 671.519714,549.847046 669.311646,558.446167 
	C665.918396,571.661316 662.283203,584.817444 659.111694,598.084839 
	C658.052490,602.515625 655.897522,603.967773 651.512817,603.943604 
	C630.694397,603.828979 609.874390,603.913635 589.055359,604.001770 
	C578.630432,604.045898 576.298096,605.899841 573.730957,615.898804 
	C572.655823,620.086365 571.865173,624.350403 570.694824,628.509155 
	C569.603821,632.385803 570.727478,634.732239 574.452087,636.448181 
	C591.243042,644.184021 607.954956,652.091675 624.685608,659.958069 
	C626.944580,661.020264 629.210693,662.092163 631.366943,663.343262 
	C639.416809,668.013977 640.741089,670.930847 638.383789,679.908325 
	C629.850586,712.406372 621.132019,744.856750 613.369141,777.550964 
	C612.662048,780.528748 611.094116,782.579529 608.729980,784.348999 
	C598.211243,792.221619 586.264465,796.003479 573.281250,796.074402 
	C542.950562,796.240173 512.618164,796.057739 482.286652,796.123718 
	C478.073456,796.132874 477.243744,794.874146 478.370392,790.730957 
	C482.123413,776.929749 485.421265,763.005066 488.933411,749.137817 
	C490.788025,741.815186 490.825317,741.808228 498.192535,741.803223 
	C520.358032,741.788086 542.523560,741.802185 564.689087,741.773376 
	C574.404297,741.760742 576.824951,739.953125 579.504517,730.484619 
	C581.090027,724.882202 582.057800,719.079346 583.984131,713.606262 
	C585.874207,708.236389 583.898804,705.758179 579.132751,703.695740 
	C563.390625,696.883484 547.963074,689.309448 532.054260,682.926392 
	C515.198425,676.163208 507.379730,661.426941 511.294159,642.444275 
	C514.955994,624.686340 519.568054,607.118652 523.997070,589.526489 
	C527.187134,576.855286 534.899170,567.239502 545.342407,559.671814 
	C547.031555,558.447815 548.801147,557.334839 550.360779,555.246094 
	C546.755859,555.246094 543.140137,555.071533 539.548889,555.293152 
	C535.630005,555.534851 532.619995,554.221497 530.830933,550.760376 
	C528.539124,546.326721 525.047974,545.106812 520.182312,545.215332 
	C507.356384,545.501648 494.518341,545.375610 481.687347,545.224304 
	C477.640167,545.176575 475.964264,546.290161 476.527924,550.735229 
	C477.225739,556.238281 476.242218,557.012390 470.480682,557.040039 
	C460.148132,557.089661 449.797455,556.688416 439.488403,557.184082 
	C431.943176,557.546875 425.255859,556.089355 419.505524,551.232971 
	C413.562744,546.214050 406.854523,545.024963 399.171875,545.093201 
	C365.009949,545.396667 330.843414,545.179016 296.678558,545.163025 
	C289.792328,545.159790 289.818573,545.280396 289.246002,552.022522 
	C287.908356,567.773193 286.447052,583.513245 284.970581,599.713379 
M753.143616,412.643860 
	C755.397461,412.577393 757.695862,412.280487 759.930908,413.747650 
	C759.573059,414.569946 759.456238,415.275757 759.049255,415.708588 
	C752.544983,422.624512 745.977112,429.480682 739.488831,436.411407 
	C737.805054,438.210022 735.747559,438.332092 733.542480,438.330017 
	C715.376526,438.312958 697.210327,438.263580 679.044983,438.365662 
	C676.002686,438.382721 673.590088,437.452332 671.305420,435.574188 
	C661.908447,427.849274 652.487305,420.152954 643.011230,412.525482 
	C640.660889,410.633636 639.456055,408.292389 638.836426,405.396759 
	C636.364197,393.843445 633.744690,382.321716 631.254089,370.772217 
	C630.738586,368.381989 629.672363,366.562012 627.734192,364.986176 
	C615.064880,354.685120 602.462463,344.301575 589.875793,333.899445 
	C587.748291,332.141205 585.550842,330.990112 582.671631,331.005341 
	C568.672729,331.079315 554.672974,331.095825 540.674377,330.998444 
	C537.514343,330.976471 536.637512,332.218414 536.930054,335.223785 
	C537.590820,342.012756 537.577026,348.896027 538.672668,355.604523 
	C539.472412,360.500641 538.048401,365.903320 541.382568,370.917786 
	C549.895203,365.858246 558.317261,361.422363 566.098633,356.057404 
	C573.016602,351.287720 580.312866,350.169006 588.355469,350.664154 
	C609.855591,351.987732 626.935364,367.524292 631.030701,389.742249 
	C634.750549,409.922699 623.972046,430.269684 604.986145,438.884705 
	C595.429810,443.220978 585.864197,447.537079 576.304138,451.865204 
	C574.278809,452.782074 572.259399,453.711731 570.237244,454.635529 
	C570.323242,455.037537 570.409241,455.439545 570.495239,455.841553 
	C598.497131,459.056213 626.498962,462.270874 655.371460,465.585480 
	C649.074463,452.659088 642.130859,440.764984 638.011353,427.507172 
	C644.620728,431.836365 652.069092,434.662872 656.040405,442.040009 
	C659.986450,449.369995 664.391724,456.452667 668.593201,463.645233 
	C669.599731,465.368256 670.398499,467.679321 672.467285,467.991699 
	C679.764038,469.093597 686.859375,471.874329 694.541138,469.502136 
	C736.698792,456.483459 778.748474,443.064240 821.205322,431.095642 
	C834.541687,427.336090 840.285461,417.369049 848.131958,408.509094 
	C846.640259,406.953888 845.219604,407.437592 843.966492,407.436035 
	C802.134766,407.384033 760.302917,407.396515 718.471313,407.293060 
	C715.366272,407.285370 712.836548,408.294250 710.835632,410.342682 
	C706.639404,414.638672 701.610168,415.898254 695.819824,415.445892 
	C692.505859,415.186951 689.155029,415.302094 685.824463,415.388794 
	C683.365601,415.452759 681.322327,414.722382 679.393799,413.180450 
	C673.016663,408.081757 666.551758,403.092896 660.136841,398.041229 
	C658.567444,396.805359 656.952698,395.587311 656.761414,393.327026 
	C655.736755,381.220764 654.715942,369.114166 653.646240,357.011841 
	C653.310913,353.217896 654.752930,350.728546 658.677429,350.451660 
	C662.765808,350.163208 662.817139,353.522369 663.288635,356.268341 
	C664.751953,364.789917 666.227417,373.310638 667.545227,381.855255 
	C668.117432,385.565277 669.694641,387.332153 673.758972,387.112579 
	C679.407959,386.807404 685.100281,387.315216 690.750610,387.022064 
	C697.951294,386.648438 704.211914,388.328430 709.375549,393.599274 
	C712.592041,396.882568 716.597717,397.778229 721.207153,397.762909 
	C760.860413,397.631226 800.514343,397.728394 840.167908,397.655640 
	C856.508301,397.625671 852.293823,399.749390 856.672974,384.958038 
	C857.979858,380.543701 857.824036,376.842773 854.894653,372.830872 
	C835.537964,346.321411 816.414856,319.641266 797.229797,293.006531 
	C795.334351,290.375000 792.973389,288.500122 789.963318,287.146973 
	C776.898743,281.273590 763.954346,275.132202 750.878174,269.285400 
	C746.530090,267.341248 742.844299,264.672729 739.423279,261.430908 
	C721.642639,244.581863 703.807983,227.789856 685.981079,210.989624 
	C684.167664,209.280624 682.479126,207.022293 679.984009,206.647964 
	C670.005493,205.151016 659.981506,203.958130 649.088379,202.537201 
	C652.824646,244.725616 656.715271,286.094086 660.999573,327.656647 
	C653.358215,321.468689 644.170349,317.696930 642.318542,306.225250 
	C639.910034,291.303833 635.834229,276.652649 632.519531,261.875366 
	C631.936096,259.274414 630.778503,257.403625 628.137024,256.324921 
	C621.046265,253.429214 614.174561,249.952805 606.978516,247.367630 
	C581.867859,238.346680 555.691467,233.088898 530.018738,226.047073 
	C523.626587,224.293762 523.084595,225.071228 522.331848,231.789810 
	C519.739014,254.933990 517.061096,278.068665 514.480469,301.214203 
	C513.749146,307.773254 513.239380,314.356995 512.627258,320.937408 
	C514.957581,321.997345 516.978455,321.695312 518.935120,321.698029 
	C540.267700,321.727692 561.600403,321.768494 582.932617,321.689697 
	C586.270752,321.677368 588.958435,322.476196 591.557800,324.731506 
	C605.023621,336.414764 618.572388,348.004852 632.237122,359.454559 
	C635.483948,362.175079 637.388855,365.262970 638.262512,369.393646 
	C640.569885,380.303284 643.179016,391.148926 645.645752,402.025085 
	C646.209961,404.512329 647.144714,406.633636 649.275696,408.328827 
	C657.620789,414.967163 665.877747,421.717834 674.092590,428.517181 
	C676.139526,430.211456 678.298828,430.953552 680.941162,430.946960 
	C697.606812,430.905334 714.273010,430.901398 730.938110,431.016144 
	C734.048096,431.037567 736.195801,429.942352 738.269836,427.639221 
	C742.833679,422.571106 747.709167,417.783569 753.143616,412.643860 
M257.099060,519.202942 
	C264.710999,520.023987 272.327637,520.804565 279.932465,521.686829 
	C282.796753,522.019104 284.993103,521.192505 287.098206,519.137451 
	C296.515594,509.943665 306.091217,500.912170 315.545013,491.755310 
	C316.769196,490.569580 318.640839,489.707977 318.633087,487.534332 
	C316.922699,486.675476 315.258911,487.238495 313.663208,487.480499 
	C304.447235,488.878113 295.238129,490.324738 286.042511,491.850128 
	C283.835480,492.216187 281.612335,492.538910 279.784393,491.131927 
	C275.322021,487.697296 270.276184,484.806671 267.568512,479.549408 
	C262.383087,469.481537 257.284058,459.369232 252.137924,449.281067 
	C250.913559,446.880920 251.031631,444.674194 252.244370,442.175507 
	C257.844696,430.636993 263.637817,419.168488 268.625732,407.363831 
	C272.622650,397.904541 278.072540,391.466400 289.287201,392.335175 
	C290.748108,392.448364 292.251434,391.956818 293.739594,391.783661 
	C321.006927,388.611023 348.334534,385.875336 375.521515,382.121460 
	C393.050690,379.701111 406.262054,385.966217 417.206421,398.962067 
	C420.662964,403.066528 422.314789,407.793365 423.286835,412.960419 
	C425.685425,425.710052 428.385254,438.404236 430.668030,451.173615 
	C431.344147,454.955658 432.990570,456.234467 436.669067,455.841675 
	C442.952484,455.170746 449.281372,454.902130 455.551544,454.138824 
	C459.953949,453.602936 464.500763,454.512177 468.689484,453.095520 
	C469.529541,451.101135 468.836395,449.472107 468.288116,447.972839 
	C464.368225,437.254425 465.146698,426.844421 469.511780,416.382019 
	C471.074127,412.637360 473.038574,409.853394 476.608063,407.850433 
	C493.023804,398.638977 509.264771,389.113007 525.756775,380.042297 
	C530.203491,377.596588 531.761658,374.473938 530.527100,369.931915 
	C529.361572,365.643555 525.533630,367.415253 522.904846,367.421722 
	C480.085144,367.526825 437.265381,367.738800 394.446899,368.079987 
	C389.576294,368.118805 386.716766,366.602112 384.275940,362.069885 
	C369.981873,335.528046 355.308563,309.190338 340.727081,282.803680 
	C339.716919,280.975708 339.106323,278.761444 336.603210,277.663422 
	C335.515137,278.542847 334.354919,279.442108 333.236389,280.390594 
	C320.476624,291.210480 309.615173,303.863678 298.715454,316.453186 
	C287.944702,328.893738 276.471710,340.772949 268.909271,355.737732 
	C264.033356,365.386322 258.112793,374.500977 252.935364,384.004730 
	C246.420761,395.962982 238.662384,407.280884 234.905884,420.656799 
	C230.497986,436.352264 225.628998,451.918121 220.969971,467.543182 
	C218.212997,476.789368 215.368744,486.011841 212.794800,495.308960 
	C212.037903,498.042816 210.607101,501.580048 214.312576,503.298126 
	C227.874832,509.586365 239.878967,520.091797 257.099060,519.202942 
M458.514221,229.217697 
	C441.125336,230.361008 424.340363,233.488770 408.411163,241.260681 
	C389.122192,250.671814 369.178833,258.720123 350.190521,268.802582 
	C346.884735,270.557892 346.528992,272.125122 348.323334,275.379669 
	C362.710785,301.475800 376.960571,327.648224 391.134521,353.861145 
	C392.660736,356.683716 394.402222,358.014465 397.714264,357.994598 
	C417.700928,357.874756 437.688751,357.915466 457.676086,357.949799 
	C460.289154,357.954285 462.528442,357.354187 464.521667,355.537903 
	C476.215118,344.882538 487.961853,334.285645 499.689575,323.667877 
	C501.327698,322.184784 502.484680,320.558075 502.748688,318.177063 
	C505.974091,289.092377 509.303680,260.019226 512.545349,230.936325 
	C512.757812,229.029999 513.371765,226.987991 511.780060,224.619263 
	C494.490967,226.121475 476.962646,227.644485 458.514221,229.217697 
M458.424133,548.626770 
	C459.756592,548.629883 461.095276,548.715698 462.419922,548.615662 
	C464.167053,548.483643 466.544952,549.294189 467.339325,547.208923 
	C468.282288,544.733643 468.368164,541.928101 466.707031,539.572937 
	C465.859192,538.370911 464.630341,537.422974 463.513916,536.427307 
	C452.826111,526.895569 442.190277,517.303711 431.387115,507.904358 
	C428.349609,505.261566 426.386871,502.338623 425.651276,498.346893 
	C423.451599,486.410309 421.009155,474.518677 418.758759,462.591187 
	C415.707581,446.419434 412.974213,430.183929 409.664062,414.066254 
	C407.582550,403.930756 395.457733,395.517090 385.370026,396.429932 
	C353.233215,399.338013 321.099854,402.286804 288.951019,405.055817 
	C285.720428,405.334045 283.866028,406.395660 282.472870,409.341705 
	C277.277954,420.327026 271.927582,431.241150 266.467621,442.097534 
	C264.852173,445.309631 265.211304,448.055725 266.894745,451.038361 
	C270.985321,458.285675 275.246582,465.463898 278.825806,472.962677 
	C281.070129,477.664642 283.855988,478.322937 288.650604,477.400146 
	C311.835144,472.937866 335.077881,468.793030 358.020782,463.144501 
	C364.458984,461.559448 365.192017,462.101440 367.044434,468.155579 
	C371.229401,481.832886 375.524536,495.479431 379.464478,509.227448 
	C381.154968,515.126343 384.078552,519.360229 389.607666,522.513672 
	C398.560760,527.620056 407.400879,533.102173 415.564056,539.369385 
	C425.022888,546.631348 435.002045,550.398071 446.965179,548.701233 
	C450.393951,548.214905 453.949738,548.624084 458.424133,548.626770 
M504.767090,407.332947 
	C499.872620,410.176544 494.943573,412.962646 490.091827,415.877441 
	C483.111328,420.071198 479.190796,428.634796 480.967987,436.753052 
	C484.116852,451.137268 490.521393,464.384552 496.081909,477.897461 
	C499.810577,486.958649 502.089478,496.748535 507.633728,504.920807 
	C516.510803,518.005737 525.960632,530.702271 535.179138,543.555298 
	C536.367310,545.211853 537.715332,546.728394 539.980896,546.718018 
	C551.786377,546.663879 563.591736,546.585327 575.396667,546.477722 
	C575.588684,546.476013 575.776367,546.000671 576.221924,545.403320 
	C571.215820,537.152954 566.029968,528.829529 561.074829,520.370911 
	C556.960388,513.347290 551.569763,507.044464 548.782654,499.273071 
	C543.726562,485.174866 538.928162,470.982574 533.722595,456.940613 
	C532.212097,452.866028 532.999084,451.049042 537.083252,449.505890 
	C556.857605,442.034363 576.536926,434.311157 596.232300,426.631714 
	C599.320984,425.427399 603.039612,424.716217 605.236084,422.536591 
	C615.746643,412.106445 623.170288,396.614685 615.600830,379.891022 
	C609.197571,365.743927 590.638733,356.287262 574.339294,366.569977 
	C551.824890,380.773468 528.428467,393.578766 504.767090,407.332947 
M305.080536,753.340698 
	C306.613922,754.541382 307.626038,756.423767 310.325104,757.121277 
	C317.737274,745.882263 325.214020,734.510681 332.735535,723.168884 
	C334.299286,720.810852 332.731476,719.523438 331.272491,718.105164 
	C323.033600,710.096008 314.816040,702.065002 306.563812,694.069641 
	C303.535004,691.135132 301.274109,687.774658 299.545502,683.880859 
	C292.656464,668.362915 285.475159,652.974609 278.609497,637.446533 
	C277.050934,633.921448 275.468811,633.118347 271.833008,634.790894 
	C262.613647,639.031982 253.207642,642.867554 243.875244,646.862915 
	C237.371292,649.647278 230.865387,652.427185 223.893982,655.408569 
	C225.181488,657.431641 225.999237,658.842285 226.936035,660.168823 
	C235.004105,671.593567 242.972260,683.091736 251.219513,694.386047 
	C256.709778,701.904785 261.218170,710.186768 267.878906,716.804932 
	C280.044830,728.893066 292.344238,740.846802 305.080536,753.340698 
M379.424988,767.749512 
	C395.730774,766.375061 412.036591,765.000671 428.207184,763.637634 
	C428.631622,760.314026 427.063232,758.622437 426.083649,756.784241 
	C423.190094,751.354736 419.615326,746.222595 417.302429,740.567078 
	C414.754578,734.336975 410.411407,732.646545 404.225739,732.126648 
	C387.506683,730.721252 370.750488,729.313660 354.178131,726.794250 
	C345.946503,725.542908 340.908264,727.101013 336.790405,734.612732 
	C332.035217,743.287109 326.022491,751.272095 320.115601,760.223572 
	C339.840088,765.100830 358.454712,771.598999 379.424988,767.749512 
M215.483521,619.078186 
	C217.308014,627.911865 217.236740,637.073486 219.572281,646.298096 
	C224.628494,644.127075 228.935806,641.905762 233.485336,640.432129 
	C237.768372,639.044678 238.861481,636.502136 238.839951,632.261047 
	C238.692841,603.283447 238.801865,574.304749 238.736969,545.326538 
	C238.723969,539.516907 240.654358,532.899597 237.961441,528.108826 
	C235.133560,523.078064 227.969147,522.055969 222.738800,519.223328 
	C219.050674,517.225891 215.583344,514.586853 211.295853,513.792297 
	C210.127823,515.598206 210.444458,517.304871 210.362946,518.931152 
	C210.046448,525.246338 209.743561,531.584839 209.653015,537.882935 
	C209.495575,548.836853 207.632645,559.769348 209.104706,570.749268 
	C211.224350,586.559570 213.294418,602.376404 215.483521,619.078186 
M280.707977,548.352539 
	C281.097534,544.383667 281.169495,540.349548 281.966980,536.464417 
	C282.746948,532.664551 280.964539,531.740540 277.846313,531.446594 
	C270.401947,530.744873 262.973022,529.856873 255.519562,529.281250 
	C249.251175,528.797180 249.052460,529.062500 249.047791,535.429932 
	C249.025146,566.215820 249.027817,597.001770 249.074417,627.787598 
	C249.077026,629.503174 248.467148,631.454956 250.301697,633.116333 
	C256.929077,631.101318 263.007874,627.609680 269.468750,625.066345 
	C272.489777,623.877075 273.597443,621.987854 273.897827,618.709412 
	C276.019836,595.548706 278.382843,572.410095 280.707977,548.352539 
M427.277618,659.133972 
	C425.644135,654.595215 424.027649,650.050171 422.369476,645.520447 
	C421.620392,643.473999 420.883362,641.258728 418.345703,640.872192 
	C412.372803,639.962463 406.580170,637.757141 398.891907,638.223755 
	C404.343506,639.985779 408.363861,641.469971 412.488647,642.558411 
	C415.641846,643.390503 417.319916,645.111206 417.736115,648.336365 
	C418.587006,654.930115 419.452637,661.525757 420.531189,668.084595 
	C421.063263,671.320068 419.848267,672.987305 416.930237,674.185974 
	C409.079102,677.411011 401.133362,680.489319 393.579010,684.323181 
	C388.698273,686.800171 386.122711,685.343262 383.301178,681.388245 
	C377.501190,673.258179 371.470703,665.284363 365.295593,657.434631 
	C363.041504,654.569275 362.665253,652.206909 364.401825,648.898376 
	C368.578522,640.940918 372.401459,632.796448 376.296478,624.693481 
	C377.142944,622.932556 378.601471,620.984619 377.473236,619.044067 
	C374.255371,613.509216 370.770630,608.129517 367.067657,602.168457 
	C366.019287,603.692139 365.454651,604.298462 365.131805,605.013916 
	C359.655151,617.150024 354.203186,629.297302 348.762085,641.449402 
	C348.077332,642.978699 347.737366,644.530579 347.952240,646.285828 
	C349.291901,657.230103 350.580536,668.084778 360.037231,675.802917 
	C362.696808,677.973450 364.835968,680.922363 366.773102,683.809937 
	C371.842316,691.366333 378.435760,696.012329 387.686493,697.417847 
	C392.141754,698.094788 395.942993,698.471191 400.079041,696.238525 
	C407.105713,692.445374 414.393951,689.136841 421.571442,685.622925 
	C423.071808,684.888428 424.850769,684.244751 425.392792,682.589478 
	C427.815887,675.189636 432.569733,667.966492 427.277618,659.133972 
M439.395447,757.200806 
	C453.076294,740.772583 466.757141,724.344360 481.051788,707.179077 
	C471.113861,703.361633 462.184235,699.910950 453.235168,696.511292 
	C451.440826,695.829590 450.021820,696.655701 448.807281,697.972717 
	C440.246887,707.255310 431.689972,716.541077 423.105957,725.801758 
	C421.383209,727.660278 421.334595,729.412659 422.616272,731.628479 
	C427.024017,739.248596 431.202850,747.001465 435.631744,754.608948 
	C436.334686,755.816467 436.532135,758.087585 439.395447,757.200806 
M480.664062,645.768799 
	C480.138824,641.780029 480.603210,637.617737 478.856354,633.308350 
	C471.535248,637.227844 464.706268,640.982727 457.776794,644.541992 
	C455.221741,645.854431 454.239746,647.616211 454.278198,650.469421 
	C454.410431,660.279907 454.761719,670.117126 454.199860,679.896484 
	C453.849579,685.993347 455.985382,688.834595 461.699005,690.476135 
	C468.776642,692.509460 475.611237,695.388916 483.542572,698.262024 
	C482.554321,680.420532 481.620575,663.563293 480.664062,645.768799 
M456.261353,476.276611 
	C459.842377,482.475922 464.046204,488.409882 466.831787,494.948120 
	C469.700836,501.682190 473.772247,504.200958 480.946472,503.184143 
	C485.907166,502.481049 491.075287,503.536346 496.730011,502.374695 
	C492.734436,492.097137 489.084106,482.481995 485.262207,472.935577 
	C480.790863,461.767181 480.722595,461.719147 468.648376,462.271271 
	C462.415924,462.556274 456.198029,463.158569 449.651642,463.641205 
	C451.119812,468.476898 454.048492,471.781403 456.261353,476.276611 
M355.223877,503.575836 
	C359.484894,503.314240 363.745941,503.052612 368.816010,502.741333 
	C366.317993,494.375519 364.066132,486.767975 361.773071,479.172882 
	C359.347290,471.138062 355.271240,469.642944 347.860931,474.114594 
	C346.445160,474.968903 345.108307,476.012756 343.902985,477.147522 
	C335.898682,484.683289 327.932526,492.259705 319.978760,499.848877 
	C319.209137,500.583191 317.895691,501.118591 318.842712,503.578186 
	C330.407104,503.578186 342.340576,503.578186 355.223877,503.575836 
M529.007019,356.877533 
	C529.466736,349.064148 527.896912,341.386108 527.414185,333.634918 
	C527.265381,331.245026 525.196167,331.050629 523.288513,330.982513 
	C518.801514,330.822327 514.314270,330.667877 509.827484,330.501434 
	C507.340942,330.409210 505.379425,331.426727 503.574280,333.095917 
	C496.001984,340.097931 488.345886,347.009399 480.784210,354.022766 
	C479.803497,354.932343 478.110321,355.572876 478.634399,357.972626 
	C495.205170,357.570374 511.810120,358.633362 529.007019,356.877533 
M402.927185,614.305481 
	C407.571625,614.055603 412.222412,613.885498 416.857483,613.517639 
	C418.794617,613.363892 421.273804,613.395325 421.992523,611.161072 
	C424.204834,604.283875 427.352264,597.679504 428.893005,589.716248 
	C410.270752,590.950989 392.596100,594.012085 374.889893,596.507812 
	C374.864899,599.403076 376.754303,600.658508 377.451752,602.447510 
	C381.968231,614.032166 390.626190,616.976318 402.927185,614.305481 
M443.856110,598.665894 
	C441.883057,597.236328 440.457428,594.952759 437.184540,594.597412 
	C434.276428,601.350464 430.933838,608.318787 430.546173,615.619446 
	C430.281189,620.610046 436.660828,622.999451 439.660339,626.896240 
	C440.164368,627.551025 440.816681,628.091614 441.400513,628.684937 
	C450.600220,638.034241 450.628845,638.088135 462.036072,632.025513 
	C466.198029,629.813416 470.733154,628.114746 474.787598,624.206787 
	C464.351868,615.591797 454.375549,607.356018 443.856110,598.665894 
M568.261719,481.229462 
	C563.226746,475.684875 558.201477,470.131470 553.152161,464.600037 
	C551.083130,462.333527 548.758118,461.119781 545.186646,463.294525 
	C548.978943,475.807190 552.791382,488.302338 558.163452,500.272827 
	C558.704956,501.479492 559.633118,502.769745 561.067627,502.785614 
	C569.252625,502.875977 577.439026,502.829468 586.866638,502.829468 
	C580.197205,495.073364 574.468811,488.411682 568.261719,481.229462 
M693.236145,405.697937 
	C696.854736,405.782959 700.057556,405.005127 702.189880,401.481628 
	C694.788391,392.473785 685.140686,397.529785 676.498962,396.655518 
	C680.735352,401.801544 684.759705,407.024597 693.236145,405.697937 
z"/>
<path fill="#000000" opacity="1.000000" stroke="none" 
	d="
M644.465332,679.565552 
	C655.313843,637.250916 666.054321,595.335022 676.798157,553.419983 
	C679.235779,543.909912 681.909546,534.452576 684.033875,524.873230 
	C685.079895,520.156006 687.097046,518.516968 692.097534,518.537842 
	C736.589661,518.723267 781.083252,518.552002 825.575867,518.670044 
	C831.342529,518.685364 837.138611,517.265747 842.593872,518.395874 
	C843.747681,519.978821 843.145935,520.998535 842.606750,522.048645 
	C834.773010,537.304565 826.867798,552.524719 819.179565,567.853699 
	C817.427795,571.346497 815.113098,572.431274 811.295227,572.408691 
	C785.133606,572.253845 758.968933,572.476868 732.809570,572.184143 
	C727.673462,572.126648 725.817566,574.144165 724.697449,578.648376 
	C721.445312,591.725647 717.882263,604.725464 714.473145,617.763977 
	C713.002869,623.387268 713.879211,624.673523 719.805481,624.685730 
	C738.634888,624.724548 757.464661,624.596497 776.294250,624.585510 
	C779.043274,624.583862 781.889343,623.996643 784.550964,625.274536 
	C784.964966,627.795898 783.535095,629.622437 782.740784,631.542603 
	C776.948730,645.544312 770.945801,659.459229 765.209106,673.483154 
	C763.726562,677.107483 761.604004,678.412720 757.657715,678.363586 
	C740.163025,678.145874 722.662964,678.354919 705.168213,678.136963 
	C701.068481,678.085938 699.274658,679.488831 698.284668,683.439697 
	C692.784424,705.390503 686.986633,727.266602 681.458191,749.210510 
	C680.455872,753.189087 678.524963,755.825623 674.971069,758.029785 
	C656.853577,769.266479 638.918945,780.797974 620.897034,792.189453 
	C619.408142,793.130615 618.126709,794.666016 615.100403,794.272766 
	C624.880554,756.062927 634.619507,718.013794 644.465332,679.565552 
z"/>
<path fill="#000000" opacity="1.000000" stroke="none" 
	d="
M767.483398,380.839478 
	C745.019409,386.913513 722.745483,372.365326 718.413635,350.990448 
	C714.067871,329.546783 727.945984,309.836456 750.230164,305.594696 
	C770.824219,301.674683 791.428772,315.706329 795.267578,336.264923 
	C798.986328,356.180969 787.757507,374.405212 767.483398,380.839478 
M783.503235,332.119812 
	C777.447327,319.964844 767.863892,314.413788 754.463562,315.299072 
	C743.049377,316.053162 732.970276,323.854736 729.512024,334.612457 
	C725.608643,346.755249 729.873291,359.446259 740.337524,366.827515 
	C750.740540,374.165619 764.646057,373.831085 774.811523,365.998199 
	C784.971008,358.169769 788.428467,345.424622 783.503235,332.119812 
z"/>
<path fill="#000000" opacity="1.000000" stroke="none" 
	d="
M833.483398,374.071625 
	C834.601624,376.718933 834.938110,379.185059 832.617615,380.671478 
	C830.339417,382.130859 828.573547,380.137512 826.947632,378.801086 
	C825.156311,377.328644 823.389099,375.765137 822.378540,373.605591 
	C821.475586,371.676056 821.229919,369.673553 823.070801,368.153656 
	C824.948425,366.603455 826.854187,367.217560 828.440918,368.717773 
	C830.125305,370.310364 831.659485,372.061798 833.483398,374.071625 
z"/>
<path fill="#000000" opacity="1.000000" stroke="none" 
	d="
M771.784912,323.082458 
	C787.016235,334.656586 784.891785,356.127869 771.053955,365.069763 
	C760.144409,372.119415 746.246460,370.341766 737.919800,360.875824 
	C729.526855,351.334534 729.364197,336.398682 737.550232,326.941772 
	C745.976013,317.207916 760.071106,315.514679 771.784912,323.082458 
M741.184753,334.797974 
	C735.252502,344.620483 740.734985,355.075806 747.034607,358.762634 
	C755.361633,363.635986 765.822510,362.012177 771.310364,354.793701 
	C777.371948,346.820618 775.980530,335.141113 768.281555,329.370514 
	C759.975281,323.144745 747.983826,325.280945 741.184753,334.797974 
z"/>
<path fill="#000000" opacity="1.000000" stroke="none" 
	d="
M744.262451,337.609558 
	C748.311951,330.854950 752.537659,328.684387 758.575195,329.987366 
	C759.148315,330.728241 758.938538,331.519287 758.824097,332.354919 
	C758.076294,337.815643 761.181824,340.825348 766.390503,339.089233 
	C770.364380,337.764709 771.183655,339.441040 771.253479,342.679871 
	C771.382812,348.680389 768.960999,353.357635 763.666382,356.266876 
	C758.662903,359.016144 752.353882,358.481232 748.301025,354.682220 
	C743.427734,350.114136 741.500610,344.540436 744.262451,337.609558 
z"/>
</svg>